<?xml version="1.0" encoding="utf-8"?>
<!-- Generator: Adobe Illustrator 24.1.0, SVG Export Plug-In . SVG Version: 6.00 Build 0)  -->
<svg version="1.1" id="Ebene_1" xmlns="http://www.w3.org/2000/svg" xmlns:xlink="http://www.w3.org/1999/xlink" x="0px" y="0px"
	 viewBox="0 0 138 100" style="enable-background:new 0 0 138 100;" xml:space="preserve">
<style type="text/css">
	.st0{fill:#BA1A1A;}
</style>
<g>
	<polygon class="st0" points="5.45,21.11 0,26.12 0,51.93 5.45,56.94 14.41,56.94 19.96,51.93 19.96,45.76 12.93,45.76 12.93,49.96 
		7.03,49.96 7.03,28.14 12.93,28.14 12.93,32.29 19.96,32.29 19.96,26.12 14.41,21.11 	"/>
	<path class="st0" d="M37.44,21.11H27.37l-6.22,35.83h6.69l1.11-7.33h6.91l1.06,7.33h6.74L37.44,21.11z M30.11,42.75l2.32-14.71
		l2.27,14.71H30.11z"/>
	<path class="st0" d="M131.78,21.11h-10.07l-6.22,35.83h6.69l1.11-7.33h6.91l1.06,7.33H138L131.78,21.11z M124.45,42.75l2.32-14.71
		l2.27,14.71H124.45z"/>
	<polygon class="st0" points="29.48,76.61 26.52,76.61 26.52,62.19 23.01,62.19 23.01,77.6 25.76,80.1 30.21,80.1 32.99,77.6 
		32.99,62.19 29.48,62.19 	"/>
	<polygon class="st0" points="48.17,72.44 44.86,62.19 40.71,62.19 40.71,80.1 44.23,80.1 44.23,69.85 47.54,80.1 51.68,80.1 
		51.68,62.19 48.17,62.19 	"/>
	<rect x="59.54" y="62.19" class="st0" width="3.52" height="17.92"/>
	<path class="st0" d="M73.52,62.19l-2.76,2.5V77.6l2.76,2.5h2.1l1.21,2.02h3.36l-1.57-2.6l2.12-1.92V64.69l-2.78-2.5H73.52z
		 M77.23,76.61h-2.96V65.7h2.96V76.61z"/>
	<polygon class="st0" points="94.83,76.61 91.87,76.61 91.87,62.19 88.37,62.19 88.37,77.6 91.12,80.1 95.56,80.1 98.35,77.6 
		98.35,62.19 94.83,62.19 	"/>
	<polygon class="st0" points="106.07,80.1 115.04,80.1 115.04,76.61 109.59,76.61 109.59,72.9 113.33,72.9 113.33,69.39 
		109.59,69.39 109.59,65.7 115.04,65.7 115.04,62.19 106.07,62.19 	"/>
	<path class="st0" d="M108.76,21.11H94.34v10l-1.25,0.22l-1.02-2.77l-5.25,4.93l1.52-10.57l-3.47,1.44l-3.77-6.48l-3.77,6.48
		l-3.47-1.44l1.52,10.57l-5.25-4.93l-1.02,2.77l-1.22-0.21v11.26l-5.27-4.42l2.38-1.35l-1.6-6.27l4.49,0.78v-10h-7.03v20.51
		l-6.61-20.51h-8.29v35.83h7.03V36.43l6.61,20.51h8.29V42.37l4,3.36l-0.76,3.2l9.34-0.95l-0.15,8.96h1.58l-0.15-8.96l9.34,0.95
		l-0.76-3.2l4.03-3.38v14.59h14.41l5.55-5.01V26.12L108.76,21.11z M94.35,42.34V31.1l4.45-0.77l-1.6,6.27l2.38,1.35L94.35,42.34z
		 M107.28,49.96h-5.9V28.14h5.9V49.96z"/>
</g>
</svg>
